<?xml version="1.0" encoding="utf-8"?>
<!-- Generator: Adobe Illustrator 24.0.0, SVG Export Plug-In . SVG Version: 6.00 Build 0)  -->
<svg version="1.1" id="Capa_1" xmlns="http://www.w3.org/2000/svg" xmlns:xlink="http://www.w3.org/1999/xlink" x="0px" y="0px"
	 viewBox="0 0 566.93 566.93" style="enable-background:new 0 0 566.93 566.93;" xml:space="preserve">
<style type="text/css">
	.st0{fill:#FFFFFF;}
	.st1{font-family:'CaverPitalsal';}
	.st2{font-size:159.0664px;}
</style>
<path class="st0" d="M272.53,229.39c-0.1-9.84-2.2-17.31-6.29-22.39c-1.3-1.62-2.78-3.25-4.44-4.9c-3.56-3.53-7.94-7.12-13.12-10.78
	c-4.84-3.16-8.94-6.72-12.29-10.66c-3.36-3.93-4.74-8.25-4.15-12.96c0.6-4.7,2.02-8.04,4.29-10.01c2.28-1.97,4.84-2.87,7.7-2.71
	c2.87,0.17,5.49,1.04,7.86,2.63c2.37,1.58,3.65,4.56,3.85,8.94c0.2,4.38,0.3,7.49,0.3,9.35h15.69c0.5-12.25-0.69-20.59-3.55-25.02
	c-2.87-4.42-6.07-7.52-9.63-9.27c-3.55-1.75-8.59-2.62-15.11-2.62c-7.11,0-12.65,1.34-16.59,4.02c-3.95,2.68-7.01,6.64-9.18,11.89
	c-2.18,5.25-3.11,11.54-2.82,18.87c0.2,3.28,1.04,6.45,2.52,9.51c1.28,3.39,2.91,6.45,4.89,9.19c2.07,2.84,4.42,5.31,7.03,7.38
	c2.61,2.08,6.93,5.47,12.96,10.18c6.02,4.7,9.77,9.02,11.25,12.96c1.48,3.93,2.17,7.06,2.07,9.35c-0.1,2.3-0.42,4.65-0.96,7.06
	c-0.54,2.41-1.61,4.33-3.18,5.74c-1.88,1.86-4.3,2.9-7.26,3.11c-2.97,0.23-5.78-0.57-8.44-2.38c-2.67-1.8-4.1-4.89-4.29-9.27
	c-0.2-4.37-0.3-7.48-0.3-9.35h-15.7c-0.5,12.25,0.69,20.59,3.55,25.01c2.87,4.43,6.07,7.52,9.63,9.27c3.56,1.75,8.6,2.63,15.11,2.63
	c5.04,0,9.29-0.68,12.75-2.04c1.41-0.54,2.69-1.21,3.84-1.98c3.95-2.68,7.01-6.64,9.18-11.9C271.88,243,272.82,236.72,272.53,229.39
	z"/>
<path class="st0" d="M279.83,301.49V409h-18.19V299.21l-34.54-0.36L227,282h31.26c0.57,2.02,1.26,3.88,2.06,5.59
	c2.26,4.87,5.78,8.54,10.54,11.03C273.33,299.92,276.31,300.88,279.83,301.49z"/>
<path class="st0" d="M320.7,261.42h-17.98c0,1.65,0.03,4.26,0.09,7.83c0.05,3.58-0.23,6.62-0.83,9.13
	c-0.18,0.76-0.44,1.43-0.78,2.01c-0.77,1.37-1.97,2.27-3.59,2.71c-2.31,0.63-4.18,0.94-5.61,0.94c-3.63,0-6.49-0.8-8.58-2.39
	c-1-0.77-1.81-1.65-2.42-2.65c-0.69-1.08-1.14-2.3-1.37-3.66c-0.44-2.61-0.77-6.72-0.99-12.32v-40.16c0-2.61,0.27-5.97,0.82-10.08
	c0.55-4.1,1.87-6.96,3.96-8.55c2.09-1.6,4.95-2.39,8.58-2.39c1.43,0,3.35,0.84,5.77,2.53c2.42,1.7,3.85,4.16,4.29,7.4
	s0.66,6.5,0.66,9.78h17.49c0.55-11.79-0.77-19.64-3.96-23.55c-3.19-3.92-6.76-6.65-10.72-8.2c-3.96-1.54-8.47-2.31-13.53-2.31
	c-7.92,0-14.08,1.18-18.47,3.55c-3.26,1.76-5.89,4.14-7.88,7.14c1.83,1.88,3.47,3.75,4.91,5.6c4.53,5.81,6.85,14.35,6.96,25.61
	c0.33,8.38-0.71,15.57-3.11,21.57c-2.41,6.01-5.79,10.55-10.16,13.61c-1.27,0.89-2.69,1.65-4.25,2.27v0.09
	c0.29,4.51,0.92,8.54,1.89,12.07c0.53,1.92,1.16,3.7,1.9,5.33c2.09,4.64,5.34,8.14,9.74,10.51c2.29,1.23,5.05,2.15,8.3,2.73
	c2.99,0.55,6.38,0.82,10.17,0.82c5.06,0,9.82-0.77,14.27-2.32c4.45-1.54,8.19-4.73,11.22-9.57
	C320.51,281.67,321.58,273.31,320.7,261.42z"/>
<text transform="matrix(1.0997 1.686342e-03 -1.533461e-03 1 -16.0476 -24.1404)" class="st0 st1 st2">t</text>
</svg>
